Coordinates
version=1
nRows=18
nColumns=22
inDegrees=yes

Units are S.I. units (second, meters, Newtons, ...)
If the header above contains a line with 'inDegrees', this indicates whether rotational values are in degrees (yes) or radians (no).

endheader
time	pelvis_tilt	pelvis_list	pelvis_rotation	pelvis_tx	pelvis_ty	pelvis_tz	hip_flexion_r	hip_adduction_r	hip_rotation_r	knee_angle_r	ankle_angle_r	subtalar_angle_r	hip_flexion_l	hip_adduction_l	hip_rotation_l	knee_angle_l	ankle_angle_l	subtalar_angle_l	lumbar_extension	lumbar_bending	lumbar_rotation
      5.35000000	      4.96304819	     -1.11631507	   -186.62290278	     -0.29015097	      0.86422506	     -0.22526692	     31.30151601	     -4.51184070	      6.97237092	     -6.99763098	      0.97765705	     10.73566221	     -6.23721058	      3.17836581	     -5.24766582	     -6.39897697	     20.28733728	      3.48119832	     -0.86128533	     -4.83264940	      5.77644247
      5.36000000	      4.87391420	     -1.22444473	   -186.49482413	     -0.29667124	      0.86281411	     -0.22639331	     31.10274505	     -4.51291387	      6.84305700	     -6.19241731	      0.96572928	     11.11138053	     -6.78003329	      3.25572427	     -5.11593908	     -6.44377127	     20.65959167	      3.49848140	     -0.91714895	     -4.81860240	      5.63979904
      5.37000000	      4.81507046	     -1.32792691	   -186.31226403	     -0.30331683	      0.86133095	     -0.22754386	     30.91736299	     -4.52730764	      6.62285257	     -5.57542633	      0.95283429	     11.33484001	     -7.27552567	      3.30722333	     -4.96936501	     -6.53330290	     21.03567500	      3.53082753	     -0.93890171	     -4.79821541	      5.44650112
      5.38000000	      4.77262898	     -1.38395779	   -186.09362625	     -0.31015091	      0.85979541	     -0.22874342	     30.71694189	     -4.50971683	      6.33369362	     -5.14847988	      0.99851006	     11.56617525	     -7.79360524	      3.29236125	     -4.77010639	     -6.58198139	     21.40371484	      3.59489191	     -0.93808925	     -4.72235447	      5.25515023
      5.39000000	      4.78009614	     -1.43187820	   -185.79775790	     -0.31706446	      0.85816561	     -0.22990648	     30.54794250	     -4.51638968	      5.97957893	     -4.90345298	      0.96942563	     11.68264231	     -8.23814003	      3.24211393	     -4.53627232	     -6.67536863	     21.78846245	      3.68094406	     -0.88714290	     -4.63143135	      4.97404946
      5.40000000	      4.84556758	     -1.46800295	   -185.42403762	     -0.32405721	      0.85644559	     -0.23102357	     30.40516487	     -4.54741147	      5.59362489	     -4.80329650	      0.83774448	     11.70276229	     -8.60358378	      3.15128907	     -4.25436514	     -6.80841487	     22.17013961	      3.77331491	     -0.77536202	     -4.51942185	      4.61468024
      5.41000000	      4.95272254	     -1.47224403	   -184.99315434	     -0.33114414	      0.85469164	     -0.23212489	     30.26788797	     -4.57555110	      5.17485206	     -4.81929103	      0.51042543	     11.65516716	     -8.93348330	      3.00445679	     -3.92311496	     -6.93484494	     22.54461364	      3.89754205	     -0.61759822	     -4.36717692	      4.22067237
      5.42000000	      5.10308900	     -1.44984580	   -184.51746452	     -0.33829808	      0.85293601	     -0.23323726	     30.14128522	     -4.59890719	      4.75294681	     -4.91606106	     -0.08341114	     11.51123523	     -9.21568060	      2.80762389	     -3.57507243	     -7.06779794	     22.88597984	      4.05188892	     -0.41187576	     -4.18307416	      3.78696879
      5.43000000	      5.26125673	     -1.37272470	   -184.02688194	     -0.34551016	      0.85127483	     -0.23441333	     30.00346408	     -4.57192763	      4.32655351	     -5.08608145	     -0.97561026	     10.97306250	     -9.48902251	      2.53675717	     -3.25556520	     -7.20912144	     23.20354264	      4.38653220	     -0.20090990	     -3.93916909	      3.35971615
      5.44000000	      5.47134061	     -1.26561942	   -183.52584093	     -0.35274786	      0.84970059	     -0.23563866	     29.90559700	     -4.51845025	      3.92538748	     -5.27867587	     -2.21748646	     10.35183107	     -9.70351349	      2.22070649	     -2.93820517	     -7.34967300	     23.45380063	      4.62979179	      0.07023905	     -3.66029436	      2.92875023
      5.45000000	      5.68758864	     -1.08970848	   -183.04045868	     -0.36000728	      0.84833613	     -0.23696551	     29.81963380	     -4.38429903	      3.53305956	     -5.50898116	     -3.73478534	      9.46843410	     -9.91284447	      1.82321771	     -2.65473127	     -7.48615137	     23.63232571	      4.89894732	      0.34442321	     -3.30724165	      2.52773153
      5.46000000	      5.90027739	     -0.84807780	   -182.59203633	     -0.36727366	      0.84723958	     -0.23842043	     29.75688858	     -4.15876504	      3.16427106	     -5.79399854	     -5.38109085	      8.24321789	    -10.13012189	      1.35167243	     -2.41819648	     -7.60886011	     23.73682139	      5.20225979	      0.61136616	     -2.88471056	      2.17606070
      5.47000000	      6.09420094	     -0.52320890	   -182.19484244	     -0.37454636	      0.84647865	     -0.24001591	     29.72667933	     -3.81465771	      2.79930701	     -6.18885969	     -6.94192831	      6.69624853	    -10.36841565	      0.78992037	     -2.24257494	     -7.72615059	     23.73225795	      5.52670788	      0.85171433	     -2.37104568	      1.88769902
      5.48000000	      6.26225482	     -0.13081079	   -181.86104183	     -0.38179932	      0.84609021	     -0.24176215	     29.73547471	     -3.35826998	      2.46683323	     -6.72642501	     -8.22884291	      4.86602451	    -10.63272990	      0.15735290	     -2.12020737	     -7.83871385	     23.61904238	      5.87728938	      1.05535030	     -1.78472823	      1.67877008
      5.49000000	      6.40868701	      0.32357756	   -181.59552732	     -0.38902364	      0.84608377	     -0.24365521	     29.78319844	     -2.79433749	      2.19358431	     -7.41226226	     -9.10725187	      2.90546384	    -10.91862022	     -0.53960495	     -2.04535572	     -7.94640784	     23.38109132	      6.24817077	      1.22568324	     -1.12952313	      1.53504661
      5.50000000	      6.53542007	      0.82408321	   -181.39248962	     -0.39618838	      0.84645788	     -0.24565881	     29.85648061	     -2.14916688	      1.99175494	     -8.22494300	     -9.53313030	      1.02102945	    -11.21042454	     -1.28274924	     -2.00042338	     -8.06981069	     23.02359777	      6.63209249	      1.36026845	     -0.42017146	      1.44829366
      5.51000000	      6.64510063	      1.36203960	   -181.21898123	     -0.40326419	      0.84720654	     -0.24768984	     29.92047452	     -1.46094653	      1.81423578	     -9.09702094	     -9.55491912	     -0.58875398	    -11.47226244	     -2.06655872	     -1.97536712	     -8.26154251	     22.54919295	      7.01706103	      1.45659733	      0.33381649	      1.38384211
      5.52000000	      6.76733956	      1.88577848	   -181.10216569	     -0.41022177	      0.84823711	     -0.24977487	     29.98263938	     -0.77306082	      1.75188749	     -9.96179181	     -9.26718524	     -1.89342803	    -11.70871806	     -2.82832521	     -1.92459494	     -8.44938531	     21.97386454	      7.43719854	      1.54887726	      1.07617418	      1.36259757
